<?xml version="1.0" encoding="utf-8"?>
<!-- Generator: Adobe Illustrator 27.5.0, SVG Export Plug-In . SVG Version: 6.00 Build 0)  -->
<svg version="1.1" xmlns="http://www.w3.org/2000/svg" xmlns:xlink="http://www.w3.org/1999/xlink" x="0px" y="0px"
	 viewBox="0 0 3000 2225" style="enable-background:new 0 0 3000 2225;" xml:space="preserve">
<g id="Layer_3">
	<path style="fill:#E9F0FF;" d="M362.143,1276.572c159.73,434.541,860.115,549.354,1326.857,473.143
		c165.911-27.091,730.549-119.287,898.975-567.043c86.28-229.374,72.545-563.009-142.286-781.714
		c-139.476-141.992-349.577-219.898-547.895-199.2c-306.687,32.008-320.292,272.18-668.027,372.807
		c-353.789,102.379-526.983-91.742-719.507,49.25C334.343,752.645,282.219,1059.141,362.143,1276.572z"/>
</g>
<g id="Layer_2">
	<g>
		
			<linearGradient id="SVGID_1_" gradientUnits="userSpaceOnUse" x1="689.2751" y1="368.1948" x2="637.8464" y2="512.1952" gradientTransform="matrix(0.9997 -0.0234 0.0234 0.9997 69.9375 -41.6257)">
			<stop  offset="0" style="stop-color:#FFE6F0"/>
			<stop  offset="1" style="stop-color:#F9B2DF"/>
		</linearGradient>
		<path style="fill:url(#SVGID_1_);" d="M566.75,230.769c0,0,74.884,63.99,98.719,203.688c2.94,17.225,7.437,33.729,13.208,49.368
			c0,0,0,0.006,0.006,0.012c40.977,111.166,145.831,178.605,207.53,151.441c27.005-70.447,16.064-58.777,16.064-58.777
			S893.043,492.19,850,412.967c-27.11-49.925-67.65-97.827-127.758-121.35C566.75,230.769,566.75,230.769,566.75,230.769z"/>
		<path style="fill:none;stroke:#FFFFFF;stroke-width:8.1454;stroke-linecap:round;stroke-miterlimit:10;" d="M643.994,293.353
			c0,0,69.772,40.257,126.49,160.078c56.718,119.821,83.997,130.884,83.997,130.884"/>
	</g>
	<g>
		
			<linearGradient id="SVGID_00000071557128123979353530000018005605770324433546_" gradientUnits="userSpaceOnUse" x1="506.7567" y1="450.6059" x2="484.4706" y2="613.465" gradientTransform="matrix(0.9997 -0.0234 0.0234 0.9997 69.9375 -41.6257)">
			<stop  offset="0" style="stop-color:#FFE6F0"/>
			<stop  offset="1" style="stop-color:#F9B2DF"/>
		</linearGradient>
		<path style="fill:url(#SVGID_00000071557128123979353530000018005605770324433546_);" d="M278.807,365.889
			c0,0,122.475,44.168,217.17,205.788c11.678,19.927,24.944,38.237,39.382,54.881c0,0,0.003,0.007,0.013,0.012
			c102.573,118.335,263.718,152.775,327.332,90.379c0.504-99.722-7.577-80.183-7.577-80.183s-50.78-99.946-140.993-177.817
			c-56.833-49.079-129.327-89.387-214.639-90.412C278.807,365.889,278.807,365.889,278.807,365.889z"/>
		<path style="fill:none;stroke:#FFFFFF;stroke-width:8.1454;stroke-linecap:round;stroke-miterlimit:10;" d="M403.544,407.216
			c0,0,105.074,17.206,231.152,138.895s164.976,122.632,164.976,122.632"/>
	</g>
	<g>
		<g>
			<path style="fill:#F5F8FF;" d="M2360.489,492.051v1009.686c0,38.246-29.695,69.25-66.324,69.25H874.43
				c-36.63,0-66.325-31.004-66.325-69.25V492.072c0-38.246,29.694-69.25,66.325-69.25h1419.754
				C2330.803,422.822,2360.489,453.817,2360.489,492.051z"/>
		</g>
		<path style="fill:#748FFE;" d="M2292.73,422.822H875.864c-37.422,0-67.759,30.336-67.759,67.759v20.63h1552.383v-20.63
			C2360.489,453.159,2330.152,422.822,2292.73,422.822z"/>
		<circle style="fill:#FFFFFF;" cx="913.623" cy="467.017" r="11.273"/>
		<circle style="opacity:0.5;fill:#FFFFFF;" cx="957.104" cy="467.017" r="11.273"/>
		<circle style="opacity:0.5;fill:#FFFFFF;" cx="1000.586" cy="467.017" r="11.273"/>
	</g>
	<g>
		<path style="fill:#B7C5FF;" d="M1812.07,946.36v504.07c0,16.87-13.68,30.55-30.56,30.55H955.45c-16.87,0-30.55-13.68-30.55-30.55
			V946.36c0-16.87,13.68-30.55,30.55-30.55h826.06C1798.39,915.81,1812.07,929.49,1812.07,946.36z"/>
		<g>
			<path style="fill:#5574D8;" d="M1200.583,1042.208h-181.107c-1.871,0-3.388-1.517-3.388-3.388v-24.386
				c0-1.871,1.517-3.388,3.388-3.388h181.107c1.871,0,3.388,1.517,3.388,3.388v24.386
				C1203.971,1040.691,1202.454,1042.208,1200.583,1042.208z"/>
			<path style="opacity:0.5;fill:#5574D8;" d="M1377.468,1086.658h-357.992c-1.871,0-3.388-1.517-3.388-3.388v-8.805
				c0-1.871,1.517-3.388,3.388-3.388h357.992c1.871,0,3.388,1.517,3.388,3.388v8.805
				C1380.856,1085.141,1379.339,1086.658,1377.468,1086.658z"/>
		</g>
		<g>
			<path style="fill:#5574D8;" d="M1720.878,1044.966c0,11.409-4.304,21.815-11.375,29.68c-8.125,9.058-19.931,14.763-33.069,14.763
				c-13.155,0-24.961-5.705-33.086-14.763c-7.07-7.865-11.374-18.271-11.374-29.68c0-24.564,19.897-44.46,44.46-44.46
				C1700.981,1000.505,1720.878,1020.402,1720.878,1044.966z"/>
			
				<ellipse transform="matrix(0.7071 -0.7071 0.7071 0.7071 -237.2401 1487.066)" style="fill:#F5F8FF;" cx="1676.427" cy="1029.907" rx="13.817" ry="13.817"/>
			<path style="fill:#F5F8FF;" d="M1709.504,1074.646c-8.125,9.058-19.931,14.763-33.069,14.763
				c-13.155,0-24.961-5.705-33.086-14.763c5.618-12.688,18.324-21.539,33.086-21.539
				C1691.198,1053.108,1703.885,1061.958,1709.504,1074.646z"/>
		</g>
		<path style="fill:#5574D8;" d="M1240.279,1226.788l-22.09,13.323c4.704,10.564,7.314,22.283,7.314,34.58
			c0,27.009-12.596,51.131-32.249,66.785l13.409,22.069c27.009-20.252,44.502-52.543,44.502-88.855
			C1251.165,1257.54,1247.251,1241.287,1240.279,1226.788z"/>
		<path style="fill:#F5F8FF;" d="M1140.112,1163.638c-15.333,0-29.939,3.122-43.24,8.768l12.296,22.689
			c9.601-3.742,20.037-5.795,30.944-5.795c27.138,0,51.346,12.724,67,32.505l22.112-13.323
			C1208.95,1181.281,1176.552,1163.638,1140.112,1163.638z"/>
		<path style="fill:#5574D8;" d="M1140.112,1360.081c-47.068,0-85.369-38.3-85.369-85.39c0-28.528,14.072-53.848,35.649-69.352
			l-12.296-22.711h-0.021c-29.533,19.974-48.994,53.805-48.994,92.063c0,61.246,49.806,111.052,111.031,111.052
			c17.3,0,33.681-3.978,48.288-11.056l-13.408-22.048C1164.342,1357.408,1152.537,1360.081,1140.112,1360.081z"/>
		<g>
			<path style="fill:#F5F8FF;" d="M1404.581,1212.144h-20.261c-1.871,0-3.388-1.517-3.388-3.388v-10.18
				c0-1.871,1.517-3.388,3.388-3.388h20.261c1.871,0,3.388,1.517,3.388,3.388v10.18
				C1407.969,1210.627,1406.452,1212.144,1404.581,1212.144z"/>
			<path style="fill:#5574D8;" d="M1621.792,1214.893h-172.859c-1.871,0-3.388-1.517-3.388-3.388v-15.679
				c0-1.871,1.517-3.388,3.388-3.388h172.859c1.871,0,3.388,1.517,3.388,3.388v15.679
				C1625.18,1213.377,1623.663,1214.893,1621.792,1214.893z"/>
			<path style="fill:#F5F8FF;" d="M1404.581,1283.173h-20.261c-1.871,0-3.388-1.517-3.388-3.388v-10.18
				c0-1.871,1.517-3.388,3.388-3.388h20.261c1.871,0,3.388,1.517,3.388,3.388v10.18
				C1407.969,1281.656,1406.452,1283.173,1404.581,1283.173z"/>
			<path style="fill:#5574D8;" d="M1676.782,1285.922h-227.849c-1.871,0-3.388-1.517-3.388-3.388v-15.679
				c0-1.871,1.517-3.388,3.388-3.388h227.849c1.871,0,3.388,1.517,3.388,3.388v15.679
				C1680.17,1284.406,1678.653,1285.922,1676.782,1285.922z"/>
			<path style="fill:#F5F8FF;" d="M1404.581,1354.202h-20.261c-1.871,0-3.388-1.517-3.388-3.388v-10.18
				c0-1.871,1.517-3.388,3.388-3.388h20.261c1.871,0,3.388,1.517,3.388,3.388v10.18
				C1407.969,1352.685,1406.452,1354.202,1404.581,1354.202z"/>
			<path style="fill:#5574D8;" d="M1553.055,1356.951h-104.121c-1.871,0-3.388-1.517-3.388-3.388v-15.679
				c0-1.871,1.517-3.388,3.388-3.388h104.121c1.871,0,3.388,1.517,3.388,3.388v15.679
				C1556.442,1355.434,1554.926,1356.951,1553.055,1356.951z"/>
		</g>
	</g>
	<g>
		
			<linearGradient id="SVGID_00000127021407836981743040000016702742709676494474_" gradientUnits="userSpaceOnUse" x1="6961.8184" y1="86.5418" x2="6957.9224" y2="409.886" gradientTransform="matrix(0.9987 -0.0502 0.0502 0.9987 -4437.2021 1171.9482)">
			<stop  offset="0" style="stop-color:#FFE6F0"/>
			<stop  offset="1" style="stop-color:#F9B2DF"/>
		</linearGradient>
		<path style="fill:url(#SVGID_00000127021407836981743040000016702742709676494474_);" d="M2735.581,843.666
			c0,0-93.311,83.596-119.457,261.936c-3.226,21.99-8.452,43.109-15.324,63.166c0,0,0,0.007-0.007,0.016
			c-48.792,142.572-180.109,231.446-259.37,198.744c-36.436-88.771-22.177-74.259-22.177-74.259s9.229-107.479,61.6-209.495
			c32.984-64.289,83.105-126.405,158.834-158.106C2735.581,843.666,2735.581,843.666,2735.581,843.666z"/>
		<path style="fill:none;stroke:#FFFFFF;stroke-width:8.1454;stroke-linecap:round;stroke-miterlimit:10;" d="M2639.227,925.544
			c0,0-87.519,53.266-156.068,207.312c-68.55,154.046-102.906,168.925-102.906,168.925"/>
	</g>
	<g>
		
			<linearGradient id="SVGID_00000149349343622914781920000015022620498107352497_" gradientUnits="userSpaceOnUse" x1="8034.0576" y1="-541.4107" x2="8030.1621" y2="-218.0852" gradientTransform="matrix(0.9704 0.2416 -0.2416 0.9704 -5250.6504 -335.6502)">
			<stop  offset="0" style="stop-color:#FFE6F0"/>
			<stop  offset="1" style="stop-color:#F9B2DF"/>
		</linearGradient>
		<path style="fill:url(#SVGID_00000149349343622914781920000015022620498107352497_);" d="M2901.721,1080.113
			c0,0-113.544,52.944-190.284,216.038c-9.464,20.109-20.59,38.806-32.984,56.008c0,0-0.002,0.007-0.011,0.013
			c-88.042,122.296-239.488,169.269-305.86,114.986c-9.127-95.523,0.311-77.499,0.311-77.499s40.001-100.184,119.706-182.629
			c50.211-51.961,116.191-96.873,197.859-105.25C2901.721,1080.113,2901.721,1080.113,2901.721,1080.113z"/>
		<path style="fill:none;stroke:#FFFFFF;stroke-width:8.1454;stroke-linecap:round;stroke-miterlimit:10;" d="M2785.764,1130.53
			c0,0-99.205,25.597-209.482,153.144s-147.472,131.823-147.472,131.823"/>
	</g>
	<g>
		<g>
			<path style="fill:#5574D8;" d="M844.835,873.624l-5.24-0.294l30.552,123.404l5.25,0.17c0.308,0.01,0.582-0.059,0.813-0.193
				c0.232-0.133,0.421-0.331,0.56-0.578c0.139-0.247,0.227-0.544,0.257-0.876c0.03-0.332,0.001-0.698-0.095-1.085l-29.186-117.663
				c-0.095-0.383-0.247-0.75-0.442-1.087s-0.432-0.643-0.695-0.904c-0.263-0.261-0.553-0.476-0.854-0.63
				C845.454,873.735,845.143,873.641,844.835,873.624"/>
			<path style="fill:#5375E0;" d="M1094.49,1651.675c-25.808-9.157-34.594,3.061-48.483,8.53L800.452,668.356
				c-1.124-4.514-2.939-8.894-5.283-12.938c-2.334-4.044-5.187-7.761-8.376-10.96c-3.18-3.199-6.695-5.888-10.355-7.877
				c-3.669-1.978-7.483-3.256-11.248-3.64l-338.596-34.292c0,0-0.669-16.755-5.97-46.483c-61.269,7.365-68.606,45.301-68.48,63.655
				c-0.149,3.01,0.109,6.235,0.823,9.621c0.043,0.226,0.07,0.352,0.07,0.352l23.995,109.503l8.53,38.95l9.087,41.458l17.799,81.244
				l6.657,30.382l18.058,82.415L596.297,1736c1.23,5.629,3.324,10.892,6.052,15.6c2.728,4.697,6.09,8.837,9.855,12.199
				c3.765,3.362,7.934,5.956,12.285,7.579c4.351,1.623,8.866,2.277,13.342,1.767l396.526-45.367c1.794-0.202,3.485-0.64,5.072-1.273
				C1051.925,1723.156,1095.228,1696.806,1094.49,1651.675z M631.866,652.478c0.029,0.029,0.058,0.067,0.077,0.105
				c0.086,0.144,0.163,0.308,0.23,0.471c-0.067-0.163-0.154-0.327-0.24-0.471C631.914,652.545,631.895,652.507,631.866,652.478z
				 M632.289,658.664c-0.058,0.019-0.125,0.029-0.182,0.048c0.058-0.019,0.125-0.029,0.182-0.057
				C632.289,658.664,632.289,658.664,632.289,658.664z M656.552,661.997c-0.096,0.125-0.192,0.25-0.298,0.365
				c0.106-0.115,0.202-0.24,0.288-0.375c0.019-0.019,0.029-0.048,0.048-0.067C656.571,661.94,656.562,661.968,656.552,661.997z"/>
		</g>
		<g>
			<path style="fill:#748FFE;" d="M1092.975,1646.017L840.705,627.044c-1.124-4.515-2.939-8.894-5.283-12.939
				c-2.334-4.044-5.187-7.761-8.376-10.96c-3.18-3.199-6.695-5.888-10.355-7.877c-3.669-1.979-7.483-3.256-11.248-3.641
				l-388.198-39.315c-4.351-0.442-8.299,0.125-11.69,1.517c-3.4,1.403-6.253,3.641-8.424,6.541
				c-2.18,2.911-3.679,6.494-4.361,10.566c-0.682,4.073-0.557,8.645,0.519,13.544l23.995,109.503l8.53,38.951l9.087,41.457
				l17.799,81.244l6.657,30.382l18.058,82.416l159.135,726.255c1.229,5.629,3.323,10.892,6.051,15.599
				c2.728,4.697,6.09,8.837,9.855,12.199c3.766,3.362,7.934,5.956,12.286,7.579c4.351,1.623,8.866,2.277,13.342,1.768
				l396.525-45.367c3.833-0.432,7.214-1.901,10.057-4.178c2.834-2.267,5.129-5.351,6.791-9.02c1.652-3.66,2.67-7.905,2.949-12.516
				C1094.694,1656.141,1094.252,1651.156,1092.975,1646.017z M685.614,612.338c0.096-0.778,0.346-1.469,0.73-2.036
				c0.375-0.567,0.874-0.999,1.489-1.277c0.615-0.279,1.326-0.394,2.123-0.317c0.797,0.077,1.604,0.336,2.372,0.749
				c0.778,0.403,1.518,0.96,2.18,1.623c0.672,0.663,1.268,1.441,1.748,2.277c0.49,0.836,0.864,1.748,1.086,2.68
				c0.221,0.941,0.278,1.815,0.182,2.603c-0.106,0.788-0.346,1.479-0.72,2.046c-0.384,0.557-0.884,0.999-1.489,1.278
				c-0.615,0.279-1.326,0.403-2.123,0.326c-0.797-0.077-1.604-0.336-2.382-0.749c-0.768-0.403-1.518-0.961-2.18-1.623
				c-0.672-0.663-1.268-1.441-1.758-2.277c-0.49-0.845-0.864-1.758-1.086-2.689C685.566,614.009,685.518,613.125,685.614,612.338z
				 M579.646,602.473c0.038-0.288,0.135-0.538,0.279-0.74c0.144-0.212,0.336-0.365,0.567-0.47c0.231-0.096,0.499-0.145,0.797-0.115
				l88.62,8.453c0.298,0.029,0.586,0.125,0.864,0.269c0.279,0.144,0.548,0.346,0.788,0.586c0.24,0.24,0.451,0.519,0.634,0.817
				c0.173,0.298,0.307,0.624,0.384,0.961l0.701,2.987c0.086,0.336,0.105,0.653,0.067,0.932c-0.038,0.288-0.125,0.537-0.259,0.739
				c-0.144,0.202-0.327,0.355-0.548,0.461c-0.221,0.096-0.48,0.144-0.768,0.115l-88.64-8.328c-0.298-0.029-0.596-0.125-0.884-0.269
				c-0.288-0.154-0.567-0.356-0.817-0.605c-0.24-0.24-0.461-0.519-0.643-0.826c-0.173-0.307-0.317-0.643-0.394-0.989l-0.701-3.026
				C579.617,603.078,579.607,602.761,579.646,602.473z"/>
			<path style="fill:#F5F8FF;" d="M1066.838,1627.354c-0.403,6.176-1.796,11.853-4.044,16.733c-2.248,4.899-5.37,9.01-9.212,12.036
				c-3.852,3.036-8.434,4.976-13.62,5.542l-162.112,17.607l-0.634,0.067l-173.053,18.798c-5.917,0.644-11.911-0.259-17.674-2.44
				c-5.773-2.19-11.306-5.658-16.31-10.153c-5.014-4.495-9.48-10.009-13.111-16.272c-3.631-6.263-6.426-13.275-8.069-20.748
				l-225.72-1023.68c-1.441-6.57-1.633-12.718-0.74-18.203c0.893-5.475,2.872-10.287,5.754-14.216
				c2.872-3.909,6.647-6.935,11.161-8.837c4.496-1.902,9.721-2.68,15.494-2.123l52.139,5.043c0.365,0.038,0.73,0.154,1.076,0.336
				c0.346,0.182,0.682,0.423,0.98,0.721c0.298,0.288,0.557,0.624,0.768,0.989c0.221,0.375,0.375,0.769,0.471,1.182l5.101,22.496
				c0.375,1.671,1.037,3.285,1.902,4.784c0.864,1.499,1.94,2.872,3.151,4.053c1.21,1.182,2.555,2.171,3.967,2.901
				c1.412,0.73,2.882,1.191,4.342,1.325l103.961,9.356l0.625,0.058l100.08,9.01c1.354,0.125,2.565-0.086,3.602-0.567
				c1.028-0.48,1.883-1.239,2.516-2.209c0.634-0.979,1.047-2.161,1.21-3.506c0.154-1.354,0.058-2.853-0.326-4.457l-5.206-21.612
				c-0.096-0.393-0.115-0.758-0.077-1.085c0.039-0.326,0.144-0.624,0.298-0.854c0.154-0.24,0.365-0.423,0.615-0.548
				c0.25-0.115,0.548-0.163,0.874-0.125l47.029,4.543c5.101,0.49,10.259,2.2,15.215,4.86c4.947,2.661,9.702,6.272,13.995,10.576
				c4.294,4.304,8.145,9.308,11.296,14.764c3.151,5.446,5.609,11.354,7.108,17.453l233.308,946.692
				C1066.665,1614.521,1067.241,1621.187,1066.838,1627.354z"/>
			<path style="fill:#DCE3FF;" d="M669.914,609.6l-88.629-8.451c-0.298-0.028-0.566,0.014-0.796,0.115
				c-0.229,0.101-0.42,0.26-0.564,0.466c-0.144,0.206-0.24,0.458-0.281,0.744c-0.041,0.286-0.026,0.606,0.053,0.947l0.7,3.031
				c0.079,0.344,0.215,0.676,0.393,0.984c0.178,0.308,0.398,0.591,0.646,0.834c0.247,0.243,0.522,0.447,0.81,0.597
				c0.287,0.15,0.588,0.246,0.886,0.274l88.645,8.326c0.289,0.027,0.547-0.015,0.768-0.116c0.221-0.1,0.403-0.258,0.54-0.462
				c0.136-0.203,0.227-0.453,0.263-0.735c0.036-0.283,0.018-0.599-0.061-0.937l-0.706-2.981c-0.079-0.336-0.214-0.661-0.388-0.963
				c-0.175-0.301-0.39-0.579-0.631-0.817c-0.241-0.239-0.508-0.439-0.788-0.586C670.493,609.722,670.202,609.627,669.914,609.6"/>
			<path style="fill:#DCE3FF;" d="M689.956,608.705c-0.798-0.076-1.514,0.04-2.124,0.317c-0.61,0.277-1.115,0.714-1.492,1.279
				c-0.377,0.565-0.627,1.256-0.727,2.041c-0.099,0.785-0.049,1.664,0.174,2.604c0.223,0.939,0.598,1.849,1.084,2.69
				c0.486,0.841,1.084,1.614,1.754,2.278c0.67,0.664,1.411,1.22,2.185,1.629c0.774,0.409,1.58,0.67,2.378,0.744
				c0.798,0.075,1.513-0.044,2.122-0.324c0.609-0.279,1.112-0.718,1.488-1.284c0.375-0.565,0.623-1.257,0.721-2.042
				c0.098-0.785,0.046-1.662-0.177-2.599c-0.223-0.937-0.597-1.845-1.083-2.685c-0.485-0.839-1.081-1.61-1.749-2.274
				c-0.668-0.663-1.408-1.219-2.18-1.629C691.559,609.044,690.754,608.782,689.956,608.705"/>
			<path style="fill:#748FFE;" d="M943.393,1636.063l-151.285,15.359c-0.301,0.031-0.57,0.138-0.798,0.306
				c-0.228,0.168-0.416,0.396-0.554,0.668c-0.139,0.273-0.229,0.59-0.262,0.935c-0.033,0.345-0.01,0.719,0.078,1.104l0.779,3.401
				c0.088,0.385,0.233,0.746,0.419,1.068c0.186,0.322,0.414,0.606,0.668,0.837c0.254,0.231,0.535,0.411,0.828,0.524
				c0.293,0.114,0.597,0.162,0.898,0.131l151.306-15.627c0.284-0.029,0.536-0.133,0.749-0.294s0.387-0.382,0.514-0.645
				c0.127-0.263,0.207-0.569,0.234-0.903s-0.001-0.695-0.091-1.069l-0.787-3.296c-0.089-0.373-0.231-0.724-0.412-1.037
				c-0.181-0.313-0.4-0.589-0.644-0.816c-0.244-0.226-0.512-0.402-0.79-0.514C943.965,1636.083,943.677,1636.034,943.393,1636.063"
				/>
		</g>
	</g>
	<g>
		<path style="opacity:0.8;fill:#B7C5FF;" d="M1812.07,946.36v285.14c-154.41-84.5-151.68-270.76-148.63-315.69h118.07
			C1798.39,915.81,1812.07,929.49,1812.07,946.36z"/>
		
			<linearGradient id="SVGID_00000055672567858915496950000009194391040993589139_" gradientUnits="userSpaceOnUse" x1="2247.356" y1="1262.4921" x2="2292.7849" y2="1286.0637">
			<stop  offset="0" style="stop-color:#9D58FF"/>
			<stop  offset="1" style="stop-color:#4801E4"/>
		</linearGradient>
		<path style="fill:url(#SVGID_00000055672567858915496950000009194391040993589139_);" d="M2314.56,1222.32
			c0,0-17.73,134.87-20.01,138.56c-2.29,3.69-58.56-37.84-58.56-37.84s3.52-12.2,9.88-28.35c5.36-13.62,12.74-30.05,21.73-44.36
			c13.53-21.55,30.72-26.7,40.09-27.82C2311.92,1222.01,2314.56,1222.32,2314.56,1222.32z"/>
		<path style="fill:#2B02C1;" d="M2314.56,1222.32c0,0-17.73,134.87-20.01,138.56c-2.29,3.69-58.56-37.84-58.56-37.84
			s3.52-12.2,9.88-28.35c6.79,5.1,21.77,12.44,29.41-14.12c9.25-32.15,29.2-54.59,32.41-58.06
			C2311.92,1222.01,2314.56,1222.32,2314.56,1222.32z"/>
		
			<linearGradient id="SVGID_00000060000691702360955850000008428565048080843934_" gradientUnits="userSpaceOnUse" x1="2484.1833" y1="1902.7435" x2="2458.1843" y2="1926.7428">
			<stop  offset="0" style="stop-color:#8A3D28"/>
			<stop  offset="1" style="stop-color:#5B2015"/>
		</linearGradient>
		<path style="fill:url(#SVGID_00000060000691702360955850000008428565048080843934_);" d="M2486.94,1944.15
			c-23.34,0-34.67-20.62-34.67-20.62c-12.24,4.53-20.85-6.34-20.85-6.34c2.27-6.57,3.85-25.66,3.85-25.66l15.09-1.11l15.05-1.1
			c1.81,14.95,30.14,29.68,39.88,34.44C2511.19,1933.28,2510.28,1944.15,2486.94,1944.15z"/>
		<path style="fill:#421511;" d="M2486.94,1944.15c-23.34,0-34.67-20.62-34.67-20.62c-12.24,4.53-20.85-6.34-20.85-6.34
			c2.27-6.57,3.85-25.66,3.85-25.66l15.09-1.11l-0.5,1.69c0,0,3.71,30.75,26.85,36.75c23.15,6,28.58-5.1,28.58-5.1
			C2511.19,1933.28,2510.28,1944.15,2486.94,1944.15z"/>
		
			<linearGradient id="SVGID_00000155120439484850543750000004339439082625471656_" gradientUnits="userSpaceOnUse" x1="2314.895" y1="1897.0969" x2="2324.6082" y2="1922.8083">
			<stop  offset="0" style="stop-color:#8A3D28"/>
			<stop  offset="1" style="stop-color:#5B2015"/>
		</linearGradient>
		<path style="fill:url(#SVGID_00000155120439484850543750000004339439082625471656_);" d="M2363.02,1925.21h-20.18l-4.36-10.55
			l-12.39,11.47c0,0-53.92,7.11-53.92-13.31c8.72-3.44,51.39-16.75,55.52-25.69c3.13-0.78,9.55-0.9,15.88-0.78
			c8.54,0.17,16.93,0.78,16.93,0.78S2369.45,1908.23,2363.02,1925.21z"/>
		<path style="fill:#421511;" d="M2363.02,1925.21h-20.18l-4.36-10.55l-12.39,11.47c0,0-53.92,7.11-53.92-13.31
			c0,0,20.83,8.32,46.59-0.82c24.99-8.87,24.84-24.71,24.81-25.65c8.54,0.17,16.93,0.78,16.93,0.78S2369.45,1908.23,2363.02,1925.21
			z"/>
		
			<linearGradient id="SVGID_00000116222891256849721800000001667512873907475120_" gradientUnits="userSpaceOnUse" x1="2266.3699" y1="1693.3875" x2="2360.2256" y2="1677.9591">
			<stop  offset="0" style="stop-color:#4B81FF"/>
			<stop  offset="1" style="stop-color:#2848D5"/>
		</linearGradient>
		<path style="fill:url(#SVGID_00000116222891256849721800000001667512873907475120_);" d="M2393.38,1572.57l-3.82,68.66
			c0,0-15.04,34.68-21.75,99.64c-1.57,15.17-2.68,31.99-3.04,50.4c-1.91,97.28-1.91,97.28-1.91,97.28s-21.48,9.82-36.73-3.18
			c0,0-19.22-146.87-18.58-235.24c0.22-31.74,0.7-63.42,1.22-90.99c0.91-49.21,1.96-85.33,1.96-85.33s17.46,3.92,29.24,7.2
			c9.61,15.26,13.57,20.91,13.57,20.91L2393.38,1572.57z"/>
		<path style="fill:#1B3BAF;" d="M2393.38,1572.57l-3.82,68.66c0,0-15.04,34.68-21.75,99.64c-3.94-12.12-8.76-32.37-12.58-65.16
			c-5.99-51.55-33.97-98-46.46-116.57c0.91-49.21,1.96-85.33,1.96-85.33s17.46,3.92,29.24,7.2c9.61,15.26,13.57,20.91,13.57,20.91
			L2393.38,1572.57z"/>
		
			<linearGradient id="SVGID_00000015326767122946426610000002736270243134650006_" gradientUnits="userSpaceOnUse" x1="2533.4502" y1="1689.5127" x2="2397.1646" y2="1680.5127">
			<stop  offset="0" style="stop-color:#4B81FF"/>
			<stop  offset="1" style="stop-color:#2848D5"/>
		</linearGradient>
		<path style="fill:url(#SVGID_00000015326767122946426610000002736270243134650006_);" d="M2467.552,1473.809
			c0,0,2.543,116.559,4.239,166.998s2.967,226.337-2.967,251.345c0,0-20.345,6.782-36.451,0c0,0-15.18-108.604-35.816-200.058
			c-27.974-123.977-56.584-211.078-56.584-211.078S2378.966,1498.392,2467.552,1473.809z"/>
		<path style="fill:#E3D2FF;" d="M2467.552,1473.809c0,0-86.497,37.387-156.825,0c0,0,9.85-133.803,23.837-259.051
			c0,0,40.447-11.932,66.867-0.982c12.574,7.559,66.197,34.896,65.562,110.554
			C2466.356,1399.987,2467.552,1473.809,2467.552,1473.809z"/>
		
			<linearGradient id="SVGID_00000018957455756877426770000013586631170752149411_" gradientUnits="userSpaceOnUse" x1="2321.7439" y1="1394.3879" x2="2480.3208" y2="1367.8157">
			<stop  offset="0" style="stop-color:#9D58FF"/>
			<stop  offset="1" style="stop-color:#4801E4"/>
		</linearGradient>
		<path style="fill:url(#SVGID_00000018957455756877426770000013586631170752149411_);" d="M2527.85,1494.33
			c0,0-31.36,33.63-80.57,45.82c-15.03,3.73-31.74,5.46-49.72,3.61c0,0,5.87-30.48,0.1-56.12c-5.67-25.12-11.28-61.88-11.28-108.98
			c0-83.33,15.05-164.88,15.05-164.88c2.46,0.43,4.91,0.8,7.26,1.47c21.52,6.16,38.95,15.15,51.84,23.44
			c0.02,0.01,0.03,0.01,0.03,0.01v0.01c17.28,11.09,26.43,20.91,26.43,20.91s-4.31,5.47-8.4,17.52c-5.2,15.28-10.06,41.15-5.39,79.9
			C2481.56,1426.33,2508.99,1487.07,2527.85,1494.33z"/>
		<path style="fill:#2B02C1;" d="M2527.85,1494.33c0,0-31.36,33.63-80.57,45.82c55.11-28.44,26.74-70.75,19.88-97.88
			c-6.94-27.5-37.73-0.56-37.73-0.56l-28-118.15c0,0,2.71-48.13,21.05-68.7c17.94-20.12,37.22-16.34,38.05-16.17
			c0.02,0.01,0.03,0.01,0.03,0.01v0.01l18.03,38.43c-5.2,15.28-10.06,41.15-5.39,79.9
			C2481.56,1426.33,2508.99,1487.07,2527.85,1494.33z"/>
		
			<linearGradient id="SVGID_00000018196526237694195890000002933167668810200705_" gradientUnits="userSpaceOnUse" x1="2451.7122" y1="1364.9982" x2="2319.7124" y2="1328.1411">
			<stop  offset="0" style="stop-color:#4B81FF"/>
			<stop  offset="1" style="stop-color:#2848D5"/>
		</linearGradient>
		<path style="fill:url(#SVGID_00000018196526237694195890000002933167668810200705_);" d="M2420.502,1365.442
			c0,0-16.669,31.366-19.211,71.207c-1.508,23.592-2.819,40.845-3.635,50.992c-5.667-25.12-11.274-61.886-11.274-108.987
			c0-83.327,15.048-164.879,15.048-164.879c2.458,0.435,4.881,0.93,7.264,1.474c0.336,12.417,2.319,46.7,13.786,84.92l-24.018,30.52
			C2398.462,1330.689,2407.506,1356.685,2420.502,1365.442z"/>
		
			<linearGradient id="SVGID_00000140000151338794637960000004014519293943776403_" gradientUnits="userSpaceOnUse" x1="2212.8408" y1="1336.6707" x2="2331.9836" y2="1370.0991">
			<stop  offset="0" style="stop-color:#9D58FF"/>
			<stop  offset="1" style="stop-color:#4801E4"/>
		</linearGradient>
		<path style="fill:url(#SVGID_00000140000151338794637960000004014519293943776403_);" d="M2361.16,1205.99l-9.85,15.83l-1.16,4.11
			c0,0-4.31,43.11-16.11,122.42c-6.59,44.23-9.97,84.96-11.72,115.17c-0.08,1.44-0.12,2.92-0.12,4.41c0,8.78,1.37,18.33,3.35,27.55
			c5.14,24.02,14.42,45.79,14.42,45.79s-30.56-7.53-56.68-13.9c-15.03-3.67-28.59-6.95-34.01-8.18c0,0,8.13-16.91,16.17-50.58
			c1.36-5.68,2.71-11.85,4.03-18.49c5.84-29.55,10.84-68.55,11.51-116.93c0.71-51.16,13.45-83.42,18.91-97.36
			c3.16-8.07,9.76-14.3,17.99-17.03l39.1-12.81H2361.16z"/>
		<path style="fill:#2B02C1;" d="M2283.29,1527.37c14.58-26.34-17.84-58.76-17.84-58.76c1.36-5.68,2.71-11.85,4.03-18.49
			l56.07,45.36c5.14,24.02,14.42,45.79,14.42,45.79S2309.41,1533.74,2283.29,1527.37z"/>
		
			<linearGradient id="SVGID_00000150080007247319297670000007172442080504067005_" gradientUnits="userSpaceOnUse" x1="2303.0393" y1="1364.9343" x2="2391.325" y2="1292.9344">
			<stop  offset="0" style="stop-color:#4B81FF"/>
			<stop  offset="1" style="stop-color:#2848D5"/>
		</linearGradient>
		<path style="fill:url(#SVGID_00000150080007247319297670000007172442080504067005_);" d="M2351.307,1221.821l-1.162,4.104
			c0,0-4.302,43.115-16.106,122.422c-6.587,44.227-9.969,84.959-11.715,115.168c-0.415-23.716-20.215-93.232-20.215-93.232
			s17.515-17.273,18.084-24.052c0.563-6.784-14.978-24.023-14.978-24.023s0,0,12.718-23.449
			c12.714-23.454,27.489-82.699,27.489-82.699l5.148,2.695L2351.307,1221.821z"/>
		
			<linearGradient id="SVGID_00000111888342857071187430000003152168497116656310_" gradientUnits="userSpaceOnUse" x1="2362.9158" y1="1214.7694" x2="2389.7688" y2="1185.0598">
			<stop  offset="0" style="stop-color:#FFAC7D"/>
			<stop  offset="1" style="stop-color:#EA7025"/>
		</linearGradient>
		<path style="fill:url(#SVGID_00000111888342857071187430000003152168497116656310_);" d="M2393.38,1209.75
			c-11.02,9.96-21.83,19.92-21.83,19.92l-12.61-5.46l-1.59-0.69l-3.18-14.41v-13.35l37.72-17.16c0,0-0.15,5.83-0.06,12.6
			C2391.94,1198.15,2392.31,1206.1,2393.38,1209.75z"/>
		<path style="fill:#C1581E;" d="M2391.83,1191.2c-22.08,9.47-31.19,33.01-31.19,33.01h-1.7l-1.59-0.69l-3.18-14.41v-13.35
			l37.72-17.16C2391.89,1178.6,2391.74,1184.43,2391.83,1191.2z"/>
		
			<linearGradient id="SVGID_00000129185355803709159890000004115599400354138513_" gradientUnits="userSpaceOnUse" x1="2325.3623" y1="1183.8788" x2="2372.2192" y2="1150.1644">
			<stop  offset="0" style="stop-color:#FFAC7D"/>
			<stop  offset="1" style="stop-color:#EA7025"/>
		</linearGradient>
		<path style="fill:url(#SVGID_00000129185355803709159890000004115599400354138513_);" d="M2325.985,1137.27
			c0,0-8.71,62.501,3.391,65.697c22.464,5.934,63.578-21.616,63.578-21.616l5.086-3.603l7.841-16.106l-13.352-21.828
			C2392.53,1139.813,2371.549,1121.163,2325.985,1137.27z"/>
		
			<linearGradient id="SVGID_00000166674447519573451590000015652583825425796227_" gradientUnits="userSpaceOnUse" x1="2358.8142" y1="1077.5104" x2="2335.9573" y2="1136.9381">
			<stop  offset="0" style="stop-color:#C65842"/>
			<stop  offset="1" style="stop-color:#982E14"/>
		</linearGradient>
		<path style="fill:url(#SVGID_00000166674447519573451590000015652583825425796227_);" d="M2405.88,1176.54l-0.01,0.01
			c-3.67,2.48-8.02,4.22-12.92,4.8c0,0,7.21-8.9,5.51-20.13c-1.69-11.23-16.53-7.63-20.77,6.04c0,0,2.75-22.01-4.02-29.14
			c0,0-39.35,13.98-82.3,4.94c-31.32-6.59-34.69-53.62-16.68-79.36c6.68-9.55,16.31-16.17,28.55-16.71
			c45.21-1.98,38.71,30.8,39.28,43.23c0.56,12.44,13.28,14.98,26.84,9.33c13.56-5.65,40.69-6.5,33.34,15.26
			c-7.34,21.75,8.2,17.23,14.7,29.67C2422.31,1153.89,2417.36,1168.81,2405.88,1176.54z"/>
		
			<linearGradient id="SVGID_00000150818739502274402310000016574471687728201348_" gradientUnits="userSpaceOnUse" x1="2327.4521" y1="1357.8748" x2="2373.1663" y2="1356.7318">
			<stop  offset="0" style="stop-color:#FFAC7D"/>
			<stop  offset="1" style="stop-color:#EA7025"/>
		</linearGradient>
		<path style="fill:url(#SVGID_00000150818739502274402310000016574471687728201348_);" d="M2373.774,1242.173
			c0,0-3.285,115.076,6.887,162.124l-21.193,69.512c0,0-26.279-40.69-29.67-61.459c7.206-42.385,32.637-172.084,32.637-172.084
			L2373.774,1242.173z"/>
		
			<linearGradient id="SVGID_00000173136840095720190540000006565765976923538560_" gradientUnits="userSpaceOnUse" x1="2356.1931" y1="1237.1134" x2="2378.1931" y2="1231.1134">
			<stop  offset="0" style="stop-color:#FFAC7D"/>
			<stop  offset="1" style="stop-color:#EA7025"/>
		</linearGradient>
		<path style="fill:url(#SVGID_00000173136840095720190540000006565765976923538560_);" d="M2386.384,1233.484
			c0,0-10.808,14.199-20.133,12.927c-9.325-1.272-12.08-18.438-12.08-18.438l10.245-5.934l6.921,1.271l6.782-1.271
			L2386.384,1233.484z"/>
		
			<linearGradient id="SVGID_00000038408488128278253560000004560829654100628142_" gradientUnits="userSpaceOnUse" x1="2380.78" y1="1230.8923" x2="2392.3516" y2="1205.3923">
			<stop  offset="0" style="stop-color:#4B81FF"/>
			<stop  offset="1" style="stop-color:#2848D5"/>
		</linearGradient>
		<path style="fill:url(#SVGID_00000038408488128278253560000004560829654100628142_);" d="M2371.337,1223.312
			c0,0,11.444,1.695,16.106,20.769l13.987-30.305c0,0-1.394-9.097-8.75-7.621L2371.337,1223.312z"/>
		
			<linearGradient id="SVGID_00000021113329296686780000000006156792116674148531_" gradientUnits="userSpaceOnUse" x1="2360.0212" y1="1232.8259" x2="2353.1641" y2="1207.1116">
			<stop  offset="0" style="stop-color:#4B81FF"/>
			<stop  offset="1" style="stop-color:#2848D5"/>
		</linearGradient>
		<path style="fill:url(#SVGID_00000021113329296686780000000006156792116674148531_);" d="M2371.337,1223.312
			c0,0-12.927,0.636-22.676,18.862l-3.603-29.034c0,0,1.907-6.782,9.113-5.298L2371.337,1223.312z"/>
		<g>
			<path style="fill:#B7C5FF;" d="M2543.39,1712.64c0,0-8.35,49.15-67.54,44.3l-51.82-73.96c-0.01-0.01-0.01-0.01-0.02-0.02
				l-234.15-334.19l-76.31-108.9l67.54-44.31l23.12,33l332.07,473.93L2543.39,1712.64z"/>
			<path style="fill:#8BA3EF;" d="M2189.862,1348.773l-76.31-108.9l67.54-44.31l23.12,33
				C2182.322,1259.413,2185.632,1316.183,2189.862,1348.773z"/>
			<path style="fill:#748FFE;" d="M2206.634,1193.921l-104.869,72.203c-6.37,4.386-15.546,2.115-20.494-5.072l-18.313-27.499
				l129.393-85.562l16.858,24.976C2214.157,1180.153,2213.004,1189.535,2206.634,1193.921z"/>
			
				<ellipse transform="matrix(0.7071 -0.7071 0.7071 0.7071 -96.4349 1689.8059)" style="fill:#B7C5FF;" cx="1991.559" cy="961.31" rx="283.136" ry="283.136"/>
			
				<ellipse transform="matrix(0.7071 -0.7071 0.7071 0.7071 -96.4349 1689.8059)" style="fill:#FFFFFF;" cx="1991.559" cy="961.31" rx="205.275" ry="205.275"/>
		</g>
		<g>
			
				<linearGradient id="SVGID_00000137107213000649140750000010208818834876634810_" gradientUnits="userSpaceOnUse" x1="2187.6094" y1="1378.0739" x2="2231.26" y2="1378.0739">
				<stop  offset="0" style="stop-color:#FFAC7D"/>
				<stop  offset="1" style="stop-color:#EA7025"/>
			</linearGradient>
			<path style="fill:url(#SVGID_00000137107213000649140750000010208818834876634810_);" d="M2231.26,1377.41l-13.47,21.7
				c0,0-16.18-1.96-25.01-10.49c-2.05-1.98-3.34-3.75-4.13-5.43c-2.58-5.58,0.46-10.17,0.38-17.98c-0.1-10.15,8.7-9.22,13.96-5.86
				c5.25,3.35,8.92-1.55,12.07,2.99c1.63,2.35,5.9,6.29,9.64,9.55C2228.21,1374.95,2231.26,1377.41,2231.26,1377.41z"/>
			<path style="fill:#C1581E;" d="M2231.26,1377.41l-13.47,21.7c0,0-16.18-1.96-25.01-10.49c-2.05-1.98-3.34-3.75-4.13-5.43
				c0-0.02,0-0.03,0-0.03s14.54,13.41,36.05-11.27C2228.21,1374.95,2231.26,1377.41,2231.26,1377.41z"/>
			<path style="fill:#E3D2FF;" d="M2242.374,1378.855l-12.703-5.328c0,0-14.748,18.174-15.013,27.026l16.158,5.858
				L2242.374,1378.855z"/>
			
				<linearGradient id="SVGID_00000053541112643655893940000005650612282718561968_" gradientUnits="userSpaceOnUse" x1="2327.7581" y1="1303.0045" x2="2424.615" y2="1400.7184">
				<stop  offset="0" style="stop-color:#9D58FF"/>
				<stop  offset="1" style="stop-color:#4801E4"/>
			</linearGradient>
			<path style="fill:url(#SVGID_00000053541112643655893940000005650612282718561968_);" d="M2497.33,1325.93c0,0,0,0,0,0.01
				c-14.15,51.64-50.81,110.44-78.04,121.82c-16.21,4.97-44.24,4.33-74.18,0.58h-0.05c-53.29-6.66-112.58-23.13-121.91-35.2
				c4.28-26.57,18-39.43,18-39.43s106.2-0.72,130.19,9.76c34.93,15.27,24.26-192.86,115.65-134.57
				C2506.21,1261.15,2506.63,1292,2497.33,1325.93z"/>
			<path style="fill:#2A00C4;" d="M2497.33,1325.94c-14.15,51.64-50.81,110.44-78.04,121.82c-16.21,4.97-44.24,4.33-74.18,0.58
				C2452.72,1456.61,2496.99,1326.92,2497.33,1325.94z"/>
		</g>
		<path style="fill:#7F2412;" d="M2405.88,1176.54l-0.01,0.01c-3.67,2.48-8.02,4.22-12.92,4.8c0,0,7.21-8.9,5.51-20.13
			c-1.69-11.23-16.53-7.63-20.77,6.04c0,0,2.75-22.01-4.02-29.14c0,0-39.35,13.98-82.3,4.94c-31.32-6.59-34.69-53.62-16.68-79.36
			h0.01c0,0-9.13,64.01,38.59,61.16c47.71-2.86,62.85-8.09,69.14,0.1c6.28,8.18,3.14,18.18,3.14,18.18s18.57-2.14,22.43,9.36
			S2405.88,1176.54,2405.88,1176.54z"/>
		<path style="fill:#8BA3EF;" d="M2543.39,1712.64c0,0-8.35,49.15-67.54,44.3l-51.82-73.96c63.58,68.07,112.25,19.51,112.25,19.51
			L2543.39,1712.64z"/>
	</g>
	<g>
		<path style="fill:#B7C5FF;" d="M941.216,569.533h338.36c15.673,0,28.379,12.706,28.379,28.379V833.28
			c0,15.673-12.706,28.379-28.379,28.379h-338.36c-15.673,0-28.379-12.706-28.379-28.379V597.912
			C912.837,582.239,925.543,569.533,941.216,569.533z"/>
		<path style="fill:none;stroke:#5574D8;stroke-width:10;stroke-linecap:round;stroke-miterlimit:10;" d="M951.761,762.308
			c11.371-26.113,30.122-61.88,50.588-60.581c33.204,2.107,43.713,100.049,69.755,99.695
			c31.072-0.422,42.886-140.212,79.199-141.852c25.16-1.137,42.347,64.963,60.893,60.893
			c22.016-4.831,11.992-100.387,44.343-109.296c5.07-1.396,9.765-0.274,12.491,0.624"/>
		
			<ellipse transform="matrix(0.1602 -0.9871 0.9871 0.1602 315.8318 1690.3568)" style="opacity:0.4;fill:#F5F8FF;" cx="1151.304" cy="659.57" rx="34.226" ry="34.226"/>
		<circle style="fill:#F5F8FF;" cx="1151.304" cy="659.57" r="17.746"/>
	</g>
	<g>
		<g>
			
				<linearGradient id="SVGID_00000133510926640266456440000014911858199732905118_" gradientUnits="userSpaceOnUse" x1="1153.1823" y1="872.4706" x2="1283.3154" y2="931.5126" gradientTransform="matrix(0.9826 0.1857 -0.1857 0.9826 -418.1947 277.9668)">
				<stop  offset="0" style="stop-color:#C65842"/>
				<stop  offset="1" style="stop-color:#982E14"/>
			</linearGradient>
			<path style="fill:url(#SVGID_00000133510926640266456440000014911858199732905118_);" d="M706.486,1550.082
				c-7.069,13.839-18.818,25.944-33.25,35.338c-29.154,18.964-69.263,26.854-103.912,15.594
				c-32.581-10.592-63.132-38.998-71.779-76.513c-1.969-8.556-2.729-17.254-2.443-25.832c0.767-23.489,9.341-46.094,22.137-62.484
				c19.389-24.825,38.401-22.471,55.762-53.574c11.479-20.568,15.924-43.181,15.924-43.181c5.146-26.171-1.246-32.921,6.866-42.842
				c10.927-13.357,29.232-9.335,39.703-27.595c2.22-3.873,2.767-3.235,3.736-9.022c4.149-24.834,38.717-43.375,47.915-34.36
				c9.198,9.015,20.174,17.251,42.68,10.603c22.515-6.647,19.751,19.536,10.251,35.185c-9.498,15.64-19.489,25.101-10.716,39.396
				c19.283,31.399,2.863,50.107-7.023,59.217c-2.214,2.023-4.099,3.574-5.187,4.685c-30.675,31.152,1.355,89.327-1.885,141.343
				C714.534,1527.836,711.983,1539.314,706.486,1550.082z"/>
			<path style="fill:#7C2312;" d="M673.236,1585.421c-29.154,18.964-69.263,26.854-103.912,15.594
				c-32.581-10.592-63.132-38.998-71.779-76.513c-1.969-8.556-2.729-17.254-2.443-25.832c0,0,6.076,27.5,43.971,28.854
				c37.894,1.353,33.421-44.672,36.38-77.389c2.957-32.708,11.205-59.037,36.261-82.056c25.055-23.01,30.97-39.88,30.97-39.88
				l56.329,22.052c0,0-1.749,19.451,23.323,19.763c-2.214,2.023-4.099,3.574-5.187,4.685c-30.675,31.152,1.355,89.327-1.885,141.343
				C705.464,1522.688,676.357,1545.638,673.236,1585.421z"/>
			
				<linearGradient id="SVGID_00000109726737224565649410000009831803052224051348_" gradientUnits="userSpaceOnUse" x1="759.3882" y1="2063.6912" x2="725.6531" y2="2083.7717">
				<stop  offset="0" style="stop-color:#8A3D28"/>
				<stop  offset="1" style="stop-color:#5B2015"/>
			</linearGradient>
			<path style="fill:url(#SVGID_00000109726737224565649410000009831803052224051348_);" d="M737.514,2099.573
				c-8.032-2.943-20.346-27.178-20.346-27.178l-1.153,26.644l-11.733-0.993c0,0-4.255-29.483,4.845-56.97
				c0.6-1.828,1.368-3.327,2.268-4.554c9.222-12.68,32.014,4.554,32.014,4.554s6.307,16.888,18.603,30.786
				c8.688,9.822,21.724,17.3,27.365,22.764c0.984,0.946,1.752,1.846,2.221,2.68C798.561,2109.62,745.545,2102.525,737.514,2099.573z
				"/>
			<path style="fill:#4C1A13;" d="M737.514,2099.573c-8.032-2.943-20.346-27.178-20.346-27.178l-1.153,26.644l-11.733-0.993
				c0,0-4.255-29.483,4.845-56.97c0.6-1.828,1.368-3.327,2.268-4.554l13.542,6.429c0,0,4.948,43.1,31.854,48.864
				c18.434,3.936,28.237,3.486,32.585,2.812c0.984,0.946,1.752,1.846,2.221,2.68C798.561,2109.62,745.545,2102.525,737.514,2099.573
				z"/>
			
				<linearGradient id="SVGID_00000039125708057004588630000001559820686433782926_" gradientUnits="userSpaceOnUse" x1="645.0807" y1="2047.2109" x2="610.8092" y2="2061.6692">
				<stop  offset="0" style="stop-color:#8A3D28"/>
				<stop  offset="1" style="stop-color:#5B2015"/>
			</linearGradient>
			<path style="fill:url(#SVGID_00000039125708057004588630000001559820686433782926_);" d="M618.091,2077.025
				c-7.16-4.686-13.711-31.067-13.711-31.067l-7.122,25.707l-11.199-3.618c0,0,2.493-29.689,17.553-54.421
				c1.237-2.034,2.605-3.524,4.048-4.583c11.846-8.641,29.343,12.305,29.343,12.305s2.343,17.872,11.199,34.187
				c5.923,10.909,16.091,20.637,20.786,27.235c1.143,1.603,1.959,3.017,2.315,4.217
				C675.314,2100.548,625.25,2081.702,618.091,2077.025z"/>
			<path style="fill:#4C1A13;" d="M618.091,2077.025c-7.16-4.686-13.711-31.067-13.711-31.067l-7.122,25.707l-11.199-3.618
				c0,0,2.493-29.689,17.553-54.421c1.237-2.034,2.605-3.524,4.048-4.583l14.18,10.609c0,0-9.634,34.038,12.052,50.757
				c16.56,12.764,29.774,12.98,35.097,12.362c1.143,1.603,1.959,3.017,2.315,4.217
				C675.314,2100.548,625.25,2081.702,618.091,2077.025z"/>
			
				<linearGradient id="SVGID_00000047032819283507858250000006032370274664171946_" gradientUnits="userSpaceOnUse" x1="744.7955" y1="1806.7789" x2="632.7371" y2="1775.4507">
				<stop  offset="0" style="stop-color:#9D58FF"/>
				<stop  offset="1" style="stop-color:#4801E4"/>
			</linearGradient>
			<path style="fill:url(#SVGID_00000047032819283507858250000006032370274664171946_);" d="M706.99,1791.695
				c-3.139,12.408-6.148,24.376-9.034,35.894c-11.583,46.37-21.142,85.394-29.23,116.199c-0.009,0.047-0.019,0.084-0.038,0.131
				c-0.206,0.806-0.422,1.602-0.628,2.39c-13.439,50.954-22.783,78.666-30.692,78.966c-13.917,0.534-42.304,3.214-29.455-42.304
				c9.737-34.478,22.155-130.21,27.609-211.8c0.572-8.585,1.068-17.019,1.481-25.21c0.834-16.747,1.303-32.473,1.303-46.418
				c0-85.554,14.404-154.632,14.404-154.632h59.098C711.807,1544.911,744.346,1644.064,706.99,1791.695z"/>
			
				<linearGradient id="SVGID_00000026146293581846933840000005022561133172805289_" gradientUnits="userSpaceOnUse" x1="716.9425" y1="1862.7894" x2="640.6072" y2="1841.4484">
				<stop  offset="0" style="stop-color:#9D58FF"/>
				<stop  offset="1" style="stop-color:#4801E4"/>
			</linearGradient>
			<path style="fill:url(#SVGID_00000026146293581846933840000005022561133172805289_);" d="M668.726,1943.788
				c10.468-44-21.592-140.125-33.204-172.617c0.572-8.585,1.068-17.019,1.481-25.21l60.953,81.627
				C686.372,1873.96,676.813,1912.983,668.726,1943.788z"/>
			
				<linearGradient id="SVGID_00000058566855249279763410000017603231323381410741_" gradientUnits="userSpaceOnUse" x1="780.7374" y1="1795.7488" x2="628.9179" y2="1789.1948">
				<stop  offset="0" style="stop-color:#9D58FF"/>
				<stop  offset="1" style="stop-color:#4801E4"/>
			</linearGradient>
			<path style="fill:url(#SVGID_00000058566855249279763410000017603231323381410741_);" d="M749.566,1965.025
				c-1.612,52.219,3.214,77.12-6.429,78.722c-9.643,1.612-41.77,12.858-40.167-13.655c1.612-26.503,4.367-177.527-58.46-268.292
				c-62.837-90.774-54.796-204.04-6.607-224.92c46.427-5.661,46.343,15.257,46.343,15.257s33.185,94.785,49.248,183.151
				c1.912,10.515,3.617,21.049,5.145,31.526c2.915,20.036,5.145,39.886,6.823,59.098
				C750.287,1881.036,750.615,1930.921,749.566,1965.025z"/>
			<path style="fill:none;stroke:#D7C2FF;stroke-width:1.8743;stroke-miterlimit:10;" d="M657.859,1549.007
				c0,0-30.222,53.955,13.671,158.274c43.893,104.319,48.867,153.319,53.409,221.599c4.542,68.279,0,118.334,0,118.334"/>
			<path style="fill:none;stroke:#D7C2FF;stroke-width:1.8743;stroke-miterlimit:10;" d="M647.738,1599.932
				c0,0,32.541,7.544,31.236-38.4"/>
			
				<linearGradient id="SVGID_00000039826015228064681560000002251332413242057615_" gradientUnits="userSpaceOnUse" x1="667.4235" y1="1366.0071" x2="689.5129" y2="1347.1307">
				<stop  offset="0" style="stop-color:#FFAEAE"/>
				<stop  offset="1" style="stop-color:#F47272"/>
			</linearGradient>
			<path style="fill:url(#SVGID_00000039826015228064681560000002251332413242057615_);" d="M660.93,1370.86
				c0.3-5.28,0.27-15.37,0.18-23.43c-0.07-6.65-0.18-11.91-0.18-11.91s14.97-3.22,26.78,3.75c0,0,1.64,19.31,5.17,30.04
				c0.98,2.99,2.12,5.32,3.4,6.37C702.17,1380.5,660.4,1380.5,660.93,1370.86z"/>
			<path style="fill:#D86060;" d="M692.88,1369.31c-0.76,0.61-1.49,0.95-2.17,0.98c0,0-16.63-20.28-29.6-22.86
				c-0.07-6.65-0.18-11.91-0.18-11.91s14.97-3.22,26.78,3.75C687.71,1339.27,689.35,1358.58,692.88,1369.31z"/>
			
				<linearGradient id="SVGID_00000060024314644083956870000011257086486569601168_" gradientUnits="userSpaceOnUse" x1="1262.295" y1="841.2193" x2="1306.8776" y2="799.4482" gradientTransform="matrix(0.9826 0.1857 -0.1857 0.9826 -418.1947 277.9668)">
				<stop  offset="0" style="stop-color:#FFAEAE"/>
				<stop  offset="1" style="stop-color:#F47272"/>
			</linearGradient>
			<path style="fill:url(#SVGID_00000060024314644083956870000011257086486569601168_);" d="M712.87,1271.162
				c0,0,8.987,64.919-1.393,76.582c-10.379,11.664-52.095-9.845-52.095-9.845s-15.401,3.63-16.698-9.696
				c-1.297-13.325,9.083-24.989,20.448-13.031C674.498,1327.13,711.909,1299.32,712.87,1271.162z"/>
			
				<linearGradient id="SVGID_00000085954886047381284520000018152161692888570754_" gradientUnits="userSpaceOnUse" x1="703.8765" y1="1397.9963" x2="650.7346" y2="1515.4222">
				<stop  offset="0" style="stop-color:#FF8D88"/>
				<stop  offset="1" style="stop-color:#F3658E"/>
			</linearGradient>
			<path style="fill:url(#SVGID_00000085954886047381284520000018152161692888570754_);" d="M738.32,1476.63
				c-13.65,21.69-12.86,67.48-17.18,80.32c-1.51,4.5-11.45,7.13-24.29,8.2c-23.89,1.99-57.81-1.4-66.17-8.2
				c-12.85-10.44,5.62-32.93,2.41-61.04c-1.61-14.02-8.61-34.64-14.22-53.18c-1.1-3.65-2.15-7.21-3.1-10.63
				c-3.89-14.05-6.01-25.63-2.77-30.17c1.61-2.25,4.49-4.85,8.08-7.56c0,0,0.01-0.01,0.03-0.02c14.33-10.83,39.83-23.49,39.83-23.49
				s9.1-1.87,28.78-3.88c19.68-2,29.32,6.83,54.54,36.55C769.48,1433.25,751.97,1454.94,738.32,1476.63z"/>
			<path style="fill:#D14B7F;" d="M693.21,1454.64c-17.07,15.28-63.06-13.01-77.44-22.54c-3.89-14.05-6.01-25.63-2.77-30.17
				c1.61-2.25,4.49-4.85,8.08-7.56c0,0,0.01-0.01,0.03-0.02C622.23,1393.73,651.4,1378.37,693.21,1454.64z"/>
			<path style="fill:#D14B7F;" d="M696.85,1565.145c-23.888,1.996-57.814-1.397-66.173-8.191
				c-12.849-10.44,5.623-32.932,2.409-61.047c-1.603-14.02-8.603-34.638-14.217-53.175l24.76-22.717
				c0,0,13.017,47.777,10.346,76.698C651.294,1525.634,655.202,1563.636,696.85,1565.145z"/>
			<g>
				<path style="fill:#5574D8;" d="M873.102,1596.395L873.102,1596.395c-13.155,4.778-27.692-2.012-32.47-15.167l-48.861-134.515
					l47.637-17.303l48.861,134.515C893.046,1577.079,886.256,1591.617,873.102,1596.395z"/>
				<path style="fill:#B7C5FF;" d="M1071.426,1104.48l128.778,354.529L1148,1461.28c-36.459-8.894-79.296-16.228-127.476-18.76
					c-40.533-2.138-78.487-0.542-113.285,3.357c-58.259,6.513-107.712,19.464-145.85,32.141c-2.302,0.094-9.26,0.1-16.205-4.54
					c-4.665-3.131-8.37-7.711-10.385-13.259l-21.058-57.972c-2.015-5.549-2.113-11.438-0.546-16.834
					c2.348-8.015,7.689-12.476,9.514-13.882c38.384-15.15,86.127-37.751,136.45-71.607c27.946-18.798,56.683-41.086,85.057-67.482
					c35.322-32.863,63.466-65.981,85.718-96.199L1071.426,1104.48z"/>
				
					<ellipse transform="matrix(0.9399 -0.3414 0.3414 0.9399 -369.3548 464.7967)" style="fill:#92ACFF;" cx="1135.819" cy="1281.743" rx="67.299" ry="188.603"/>
				<path style="fill:#748FFE;" d="M1188.145,1262.741c31.487,86.685,34.805,165.024,7.418,174.972
					c-10.045,3.649-22.823-2.4-36.533-15.828c-23.675-23.143-50.12-68.221-70.061-123.119
					c-19.946-54.911-28.602-106.467-25.299-139.409c1.906-19.07,7.818-31.922,17.863-35.571
					C1108.92,1113.837,1156.653,1176.042,1188.145,1262.741z"/>
				<path style="fill:#5574D8;" d="M1088.968,1298.766c4.414,12.153,9.148,23.816,14.1,34.879
					c17.413,38.899,37.535,70.222,55.959,88.244c1.121-0.134,2.187-0.384,3.219-0.759c22.976-8.346,20.185-74.037-6.218-146.723
					c-26.41-72.708-66.429-124.876-89.406-116.53c-1.033,0.375-2.007,0.878-2.956,1.484c-2.563,25.645,2.114,62.59,13.729,103.608
					C1080.698,1274.631,1084.554,1286.613,1088.968,1298.766z"/>
				<path style="fill:#B7C5FF;" d="M766.068,1461.129l-28.004,10.172c-11.813,4.291-24.868-1.807-29.159-13.62l-13.393-36.87
					c-4.291-11.813,1.807-24.868,13.62-29.159l28.005-10.172L766.068,1461.129z"/>
				<path style="fill:#748FFE;" d="M907.24,1445.877c-58.259,6.513-107.712,19.464-145.85,32.141c-2.302,0.094-9.26,0.1-16.205-4.54
					c-4.665-3.131-8.37-7.711-10.385-13.259l-21.058-57.972c-2.015-5.549-2.113-11.438-0.546-16.834
					c2.348-8.015,7.689-12.476,9.514-13.882c38.384-15.15,86.127-37.751,136.45-71.607c3.964,22.754,9.933,48.214,18.951,75.429
					C886.831,1401.7,896.91,1425.234,907.24,1445.877z"/>
				<path style="fill:#B7C5FF;" d="M1088.968,1298.766c4.414,12.153,9.148,23.816,14.1,34.879l27.723-10.07
					c15.691-5.699,23.782-23.042,18.083-38.733l-5.033-13.856c-5.7-15.691-23.031-23.786-38.722-18.087l-27.723,10.07
					C1080.698,1274.631,1084.554,1286.613,1088.968,1298.766z"/>
				
					<ellipse transform="matrix(0.9399 -0.3414 0.3414 0.9399 -369.3537 464.7946)" style="fill:#FFFFFF;" cx="1135.819" cy="1281.743" rx="11.216" ry="20.396"/>
			</g>
			<g>
				
					<linearGradient id="SVGID_00000066486610670200309420000005691080960014544055_" gradientUnits="userSpaceOnUse" x1="784.3619" y1="1482.4694" x2="731.2183" y2="1611.0428">
					<stop  offset="0" style="stop-color:#FFAEAE"/>
					<stop  offset="1" style="stop-color:#F47272"/>
				</linearGradient>
				<path style="fill:url(#SVGID_00000066486610670200309420000005691080960014544055_);" d="M893.571,1561.532
					c-0.86,12.43-17.431,17.248-38.431,15.858s-110.71-18.39-139.85-38.96c-7.11-5.99-14.26-12.06-21.15-17.93l-0.01-0.01
					c-27.17-23.17-50.2-43.35-50.2-43.35l33.86-25.14c0,0,10.41,11.79,23.19,25.21c15.06,15.83,33.38,33.94,41.73,37.65
					c15.43,6.85,97.714,47.536,120.004,39.426C884.994,1546.186,894.431,1549.102,893.571,1561.532z"/>
				<path style="fill:#D86060;" d="M694.13,1520.49c-27.17-23.17-50.2-43.35-50.2-43.35l33.86-25.14c0,0,10.41,11.79,23.19,25.21
					l0.01,0.02C700.99,1477.23,677.62,1500.8,694.13,1520.49z"/>
				
					<linearGradient id="SVGID_00000044894926258140448050000008913382778693508528_" gradientUnits="userSpaceOnUse" x1="656.2553" y1="1424.8901" x2="624.9696" y2="1464.7473">
					<stop  offset="0" style="stop-color:#FF8D88"/>
					<stop  offset="1" style="stop-color:#F3658E"/>
				</linearGradient>
				<path style="fill:url(#SVGID_00000044894926258140448050000008913382778693508528_);" d="M693.214,1454.643
					c0,0-52.746-74.072-88.159-48.929c-35.412,25.143,41.863,91.647,48.764,92.789
					C660.72,1499.645,700.678,1464.633,693.214,1454.643z"/>
			</g>
		</g>
		<path style="fill:#B485FF;" d="M745.461,1825.912c-16.297-0.309-29.418-13.626-29.418-30.008c0-14.02,9.606-25.791,22.595-29.09
			C741.553,1786.85,743.783,1806.7,745.461,1825.912z"/>
	</g>
	<g>
		<ellipse style="fill:#B7C5FF;" cx="2516.093" cy="973.3" rx="122.716" ry="101.124"/>
		<circle style="fill:#5574D8;" cx="2516.093" cy="973.3" r="13.957"/>
		<circle style="fill:#5574D8;" cx="2467.465" cy="973.3" r="13.957"/>
		<circle style="fill:#5574D8;" cx="2564.721" cy="973.3" r="13.957"/>
		<path style="fill:#B7C5FF;" d="M2413.361,1024.289l-3.356,54.44l43.504-22.094
			C2453.508,1056.635,2433.757,1021.048,2413.361,1024.289z"/>
	</g>
	<g>
		<path style="fill:#B7C5FF;" d="M2433.726,359.977h-238.322c-14.334,0-25.955,11.62-25.955,25.955v238.322
			c0,14.334,11.62,25.955,25.955,25.955h238.322c14.334,0,25.955-11.62,25.955-25.955V385.932
			C2459.681,371.597,2448.06,359.977,2433.726,359.977z"/>
		<g>
			<path style="fill:#5574D8;" d="M2266.491,579.534h-25.872c-4.892,0-8.857-3.965-8.857-8.857v-72.98
				c0-4.892,3.965-8.857,8.857-8.857h25.872c4.892,0,8.857,3.965,8.857,8.857v72.98
				C2275.349,575.569,2271.383,579.534,2266.491,579.534z"/>
			<path style="fill:#5574D8;" d="M2349.23,494.911l37.011-0.359c4.216,0,8.138,2.369,9.913,6.193
				c0.81,1.745,1.24,3.674,1.212,5.662c-0.066,4.849-2.841,9.286-7.184,11.495c4.322,2.049,7.116,6.38,7.184,11.136
				c0.07,4.883-5.26,9.39-9.699,11.495c4.539,2.102,7.268,6.746,6.825,11.495c-0.377,4.046-5.748,8.801-10.777,9.34
				c3.9,2.006,6.07,6.255,5.388,10.418c-0.753,4.596-4.826,8.136-9.699,8.262h-70.185c-1.142,0-2.279-0.147-3.384-0.436l-18.9-4.956
				c-1.606-0.421-2.726-1.872-2.726-3.533v-72.919c0-2.017,1.635-3.652,3.652-3.652h19.015c2.844,0,5.489-1.471,6.981-3.892
				c3.894-6.322,9.577-16.191,17.129-24.264c10.417-11.136,13.573-33.989,21.835-36.145c8.262-2.155,17.243,26.942,7.544,43.107
				C2350.667,489.523,2349.23,494.911,2349.23,494.911z"/>
			<circle style="fill:#FFFFFF;" cx="2253.555" cy="560.515" r="7.484"/>
		</g>
	</g>
	<g>
		<path style="fill:none;stroke:#89A1EF;stroke-width:3;stroke-miterlimit:10;" d="M1672.545,601.137v228.681
			c0,17.59-14.261,31.842-31.842,31.842h-228.681c-17.59,0-31.842-14.252-31.842-31.842V601.137
			c0-17.581,14.252-31.842,31.842-31.842h228.681C1658.284,569.295,1672.545,583.556,1672.545,601.137z"/>
		<g>
			<path style="fill:#B7C5FF;" d="M1812.07,409.852v284.799c0,21.907-17.76,39.656-39.656,39.656h-284.799
				c-21.907,0-39.656-17.749-39.656-39.656V409.852c0-21.895,17.749-39.656,39.656-39.656h284.799
				C1794.309,370.196,1812.07,387.957,1812.07,409.852z"/>
			<g>
				<path style="fill:#5574D8;" d="M1731.404,552.249c0,55.999-45.399,101.398-101.398,101.398
					c-55.986,0-101.386-45.399-101.386-101.398c0-55.986,45.4-101.386,101.386-101.386v39.548
					c-34.152,0-61.839,27.687-61.839,61.839c0,34.164,27.687,61.851,61.839,61.851c34.164,0,61.851-27.687,61.851-61.851H1731.404z"
					/>
				<path style="fill:#FFFFFF;" d="M1731.404,552.249h-39.547c0-34.152-27.687-61.839-61.851-61.839v-39.548
					C1686.004,450.862,1731.404,496.262,1731.404,552.249z"/>
			</g>
		</g>
	</g>
	<g>
		<path style="fill:#B7C5FF;" d="M2111.857,877.636v167.348c0,12.293-9.963,22.263-22.256,22.263h-196.078
			c-4.495,0-8.677-1.332-12.173-3.623c-6.074-3.976-10.089-10.842-10.089-18.64V877.636c0-12.294,9.969-22.263,22.263-22.263
			h196.078C2101.894,855.373,2111.857,865.342,2111.857,877.636z"/>
		<g>
			<polygon style="fill:#5574D8;" points="1916.639,1017.5 2066.48,1017.5 2033.861,967.298 2008.378,1001.446 1967.86,933.406 			
				"/>
			<circle style="fill:#FFFFFF;" cx="2025.962" cy="923.468" r="18.348"/>
		</g>
	</g>
</g>
</svg>
